<?xml version="1.0" encoding="UTF-8" standalone="no"?><svg xmlns="http://www.w3.org/2000/svg" xmlns:xlink="http://www.w3.org/1999/xlink" contentScriptType="application/ecmascript" contentStyleType="text/css" height="430px" preserveAspectRatio="none" style="width:440px;height:430px;" version="1.1" viewBox="0 0 440 430" width="440px" zoomAndPan="magnify"><defs><filter height="300%" id="f1ccejf86844el" width="300%" x="-1" y="-1"><feGaussianBlur result="blurOut" stdDeviation="2.0"/><feColorMatrix in="blurOut" result="blurOut2" type="matrix" values="0 0 0 0 0 0 0 0 0 0 0 0 0 0 0 0 0 0 .4 0"/><feOffset dx="4.0" dy="4.0" in="blurOut2" result="blurOut3"/><feBlend in="SourceGraphic" in2="blurOut3" mode="normal"/></filter></defs><g><rect fill="#DDDDDD" height="27.6094" rx="5" ry="5" style="stroke: #000000; stroke-width: 1.0;" width="421" x="8" y="8"/><text fill="#000000" font-family="sans-serif" font-size="14" lengthAdjust="spacingAndGlyphs" textLength="409" x="14" y="27.5332">♦ Composition relation  ♢ Aggregation relation  * Multiple relation</text><!--MD5=[bc580992a0121350dbeb037df29eb0ce]
cluster com.company.model--><polygon fill="#FFFFFF" filter="url(#f1ccejf86844el)" points="103,68.6094,251,68.6094,258,92.2188,323,92.2188,323,418.6094,103,418.6094,103,68.6094" style="stroke: #000000; stroke-width: 1.5;"/><line style="stroke: #000000; stroke-width: 1.5;" x1="103" x2="258" y1="92.2188" y2="92.2188"/><text fill="#000000" font-family="sans-serif" font-size="14" font-weight="bold" lengthAdjust="spacingAndGlyphs" textLength="142" x="107" y="85.1426">com.company.model</text><!--MD5=[7095d094788fc8e7b2ad0a29574f50bc]
class Claim--><rect fill="#FEFECE" filter="url(#f1ccejf86844el)" height="103.3438" id="Claim" style="stroke: #A80036; stroke-width: 1.5;" width="150" x="138" y="299.6094"/><ellipse cx="192.25" cy="315.6094" fill="#ADD1B2" rx="11" ry="11" style="stroke: #A80036; stroke-width: 1.0;"/><path d="M195.0156,311.4844 Q195.1719,311.2656 195.3594,311.1563 Q195.5469,311.0469 195.7656,311.0469 Q196.1406,311.0469 196.375,311.3125 Q196.6094,311.5625 196.6094,312.1719 L196.6094,313.625 Q196.6094,314.2344 196.375,314.5 Q196.1406,314.7656 195.7656,314.7656 Q195.4219,314.7656 195.2188,314.5625 Q195.0156,314.375 194.9063,313.8594 Q194.8594,313.5 194.6719,313.3125 Q194.3438,312.9375 193.7344,312.7188 Q193.125,312.5 192.5,312.5 Q191.7344,312.5 191.0938,312.8281 Q190.4688,313.1563 189.9688,313.9063 Q189.4844,314.6563 189.4844,315.6875 L189.4844,316.7813 Q189.4844,318.0156 190.375,318.8438 Q191.2656,319.6563 192.8594,319.6563 Q193.7969,319.6563 194.4531,319.4063 Q194.8438,319.25 195.2656,318.8125 Q195.5313,318.5469 195.6719,318.4688 Q195.8281,318.3906 196.0313,318.3906 Q196.3594,318.3906 196.6094,318.6563 Q196.875,318.9063 196.875,319.25 Q196.875,319.5938 196.5313,320 Q196.0313,320.5781 195.2344,320.9063 Q194.1563,321.3594 192.8594,321.3594 Q191.3438,321.3594 190.1406,320.7344 Q189.1563,320.2344 188.4688,319.1719 Q187.7813,318.0938 187.7813,316.8125 L187.7813,315.6563 Q187.7813,314.3281 188.3906,313.1875 Q189.0156,312.0313 190.1094,311.4219 Q191.2031,310.7969 192.4375,310.7969 Q193.1719,310.7969 193.8125,310.9688 Q194.4688,311.125 195.0156,311.4844 Z "/><text fill="#000000" font-family="sans-serif" font-size="12" lengthAdjust="spacingAndGlyphs" textLength="33" x="212.75" y="320.5195">Claim</text><line style="stroke: #A80036; stroke-width: 1.5;" x1="139" x2="287" y1="331.6094" y2="331.6094"/><ellipse cx="149" cy="342.6094" fill="none" rx="3" ry="3" style="stroke: #038048; stroke-width: 1.0;"/><text fill="#000000" font-family="sans-serif" font-size="11" lengthAdjust="spacingAndGlyphs" textLength="98" x="158" y="347.0283">persistenceId : Long</text><ellipse cx="149" cy="356.4453" fill="none" rx="3" ry="3" style="stroke: #038048; stroke-width: 1.0;"/><text fill="#000000" font-family="sans-serif" font-size="11" lengthAdjust="spacingAndGlyphs" textLength="90" x="158" y="360.8643">description : String</text><ellipse cx="149" cy="370.2813" fill="none" rx="3" ry="3" style="stroke: #038048; stroke-width: 1.0;"/><text fill="#000000" font-family="sans-serif" font-size="11" lengthAdjust="spacingAndGlyphs" textLength="75" x="158" y="374.7002">answer : String</text><ellipse cx="149" cy="384.1172" fill="none" rx="3" ry="3" style="stroke: #038048; stroke-width: 1.0;"/><text fill="#000000" font-family="sans-serif" font-size="11" lengthAdjust="spacingAndGlyphs" textLength="124" x="158" y="388.5361">satisfactionLevel : Integer</text><line style="stroke: #A80036; stroke-width: 1.5;" x1="139" x2="287" y1="394.9531" y2="394.9531"/><!--MD5=[13ff7b0a35ea8c28e11a3c9e8b13932e]
class CustomerCompensation--><rect fill="#FEFECE" filter="url(#f1ccejf86844el)" height="117.1797" id="CustomerCompensation" style="stroke: #A80036; stroke-width: 1.5;" width="188" x="119" y="104.6094"/><ellipse cx="142.55" cy="120.6094" fill="#ADD1B2" rx="11" ry="11" style="stroke: #A80036; stroke-width: 1.0;"/><path d="M145.3156,116.4844 Q145.4719,116.2656 145.6594,116.1563 Q145.8469,116.0469 146.0656,116.0469 Q146.4406,116.0469 146.675,116.3125 Q146.9094,116.5625 146.9094,117.1719 L146.9094,118.625 Q146.9094,119.2344 146.675,119.5 Q146.4406,119.7656 146.0656,119.7656 Q145.7219,119.7656 145.5188,119.5625 Q145.3156,119.375 145.2063,118.8594 Q145.1594,118.5 144.9719,118.3125 Q144.6438,117.9375 144.0344,117.7188 Q143.425,117.5 142.8,117.5 Q142.0344,117.5 141.3938,117.8281 Q140.7688,118.1563 140.2688,118.9063 Q139.7844,119.6563 139.7844,120.6875 L139.7844,121.7813 Q139.7844,123.0156 140.675,123.8438 Q141.5656,124.6563 143.1594,124.6563 Q144.0969,124.6563 144.7531,124.4063 Q145.1438,124.25 145.5656,123.8125 Q145.8313,123.5469 145.9719,123.4688 Q146.1281,123.3906 146.3313,123.3906 Q146.6594,123.3906 146.9094,123.6563 Q147.175,123.9063 147.175,124.25 Q147.175,124.5938 146.8313,125 Q146.3313,125.5781 145.5344,125.9063 Q144.4563,126.3594 143.1594,126.3594 Q141.6438,126.3594 140.4406,125.7344 Q139.4563,125.2344 138.7688,124.1719 Q138.0813,123.0938 138.0813,121.8125 L138.0813,120.6563 Q138.0813,119.3281 138.6906,118.1875 Q139.3156,117.0313 140.4094,116.4219 Q141.5031,115.7969 142.7375,115.7969 Q143.4719,115.7969 144.1125,115.9688 Q144.7688,116.125 145.3156,116.4844 Z "/><text fill="#000000" font-family="sans-serif" font-size="12" lengthAdjust="spacingAndGlyphs" textLength="137" x="158.45" y="125.5195">CustomerCompensation</text><line style="stroke: #A80036; stroke-width: 1.5;" x1="120" x2="306" y1="136.6094" y2="136.6094"/><ellipse cx="130" cy="147.6094" fill="none" rx="3" ry="3" style="stroke: #038048; stroke-width: 1.0;"/><text fill="#000000" font-family="sans-serif" font-size="11" lengthAdjust="spacingAndGlyphs" textLength="98" x="139" y="152.0283">persistenceId : Long</text><ellipse cx="130" cy="161.4453" fill="none" rx="3" ry="3" style="stroke: #038048; stroke-width: 1.0;"/><text fill="#000000" font-family="sans-serif" font-size="11" lengthAdjust="spacingAndGlyphs" textLength="128" x="139" y="165.8643">compensationType : String</text><ellipse cx="130" cy="175.2813" fill="none" rx="3" ry="3" style="stroke: #038048; stroke-width: 1.0;"/><text fill="#000000" font-family="sans-serif" font-size="11" lengthAdjust="spacingAndGlyphs" textLength="137" x="139" y="179.7002">compensationValue : Integer</text><ellipse cx="130" cy="189.1172" fill="none" rx="3" ry="3" style="stroke: #038048; stroke-width: 1.0;"/><text fill="#000000" font-family="sans-serif" font-size="11" lengthAdjust="spacingAndGlyphs" textLength="158" x="139" y="193.5361">compensationDescription : String</text><ellipse cx="130" cy="202.9531" fill="none" rx="3" ry="3" style="stroke: #038048; stroke-width: 1.0;"/><text fill="#000000" font-family="sans-serif" font-size="11" lengthAdjust="spacingAndGlyphs" textLength="162" x="139" y="207.3721">compensationValidation : Boolean</text><line style="stroke: #A80036; stroke-width: 1.5;" x1="120" x2="306" y1="213.7891" y2="213.7891"/><!--MD5=[bff651a01d48dac6a194773c2195b6ed]
reverse link CustomerCompensation to Claim--><path d="M213,234.8094 C213,256.3194 213,279.5094 213,299.4094 " fill="none" id="CustomerCompensation&lt;-Claim" style="stroke: #A80036; stroke-width: 1.0;"/><polygon fill="#FFFFFF" points="213,221.6894,209,227.6894,213,233.6894,217,227.6894,213,221.6894" style="stroke: #A80036; stroke-width: 1.0;"/><text fill="#000000" font-family="sans-serif" font-size="13" lengthAdjust="spacingAndGlyphs" textLength="31" x="214" y="266.1045">claim</text><!--MD5=[727ad326b0b5b60272206d50b2e2fccb]
@startuml

package com.company.model {

    class Claim {
        +persistenceId : Long
        +description : String
        +answer : String
        +satisfactionLevel : Integer
    }

    class CustomerCompensation {
        +persistenceId : Long
        +compensationType : String
        +compensationValue : Integer
        +compensationDescription : String
        +compensationValidation : Boolean
    }

}

CustomerCompensation o- -  Claim : claim

legend top left
&#9830; Composition relation  &#9826; Aggregation relation  &#42; Multiple relation
endlegend

@enduml

PlantUML version 1.2019.11(Sun Sep 22 12:02:15 CEST 2019)
(EPL source distribution)
Java Runtime: OpenJDK Runtime Environment
JVM: OpenJDK 64-Bit Client VM
Java Version: 11.0.10+9
Operating System: Windows 10
Default Encoding: UTF8
Language: en
Country: US
--></g></svg>